# xmcd
#
# Track frame offsets:
#       150
#       19246
#       33908
#       48250
#       62798
#       80520
#       100515
#       115508
#       129956
#       140875
#
# Disc length: 2132 seconds
#
# Revision: 4
# Processed by: cddbd v1.5.1PL0 Copyright (c) Steve Scherf et al.
# Submitted via: WaveLab 4.01
#
DISCID=7b08520a
DTITLE=Paolo frescura - Bella dentro
DYEAR=1900
DGENRE=
TTITLE0=Bella dentro
TTITLE1=Ma tu
TTITLE2=Non andartene via stasera
TTITLE3=Sei bella
TTITLE4=Frammenti di un amore
TTITLE5=Ma allora è amore
TTITLE6=Felicità
TTITLE7=Le scarpe di tela
TTITLE8=Lo so che mi vuoi
TTITLE9=Ti fa bella l'amore
EXTD=
EXTT0=
EXTT1=
EXTT2=
EXTT3=
EXTT4=
EXTT5=
EXTT6=
EXTT7=
EXTT8=
EXTT9=
PLAYORDER=
